<svg xmlns="http://www.w3.org/2000/svg" viewBox="0 0 24 24" fill="currentColor">
  <path d="M12.032 2.001c-5.514 0-9.996 4.48-9.999 9.993a9.966 9.966 0 001.357 5.021l-1.358 4.959 5.06-1.333a10.016 10.016 0 004.94 1.357c5.513 0 9.996-4.481 9.999-9.994.003-5.514-4.479-9.997-9.999-9.997zm2.925 14.135c-.246.325-.852.53-1.306.575-.39.039-.806.022-1.252-.174-3.232-1.424-4.641-4.834-4.781-5.055-.14-.222-.978-1.298-.978-2.477 0-1.179.611-1.749.891-2.06.201-.224.502-.336.808-.336.14 0 .268.014.386.042.203.048.381.157.502.364.217.373.724 1.375.788 1.479.064.104.115.233.036.399-.079.166-.11.242-.222.393-.112.151-.23.246-.365.382-.101.095-.212.199-.09.389.122.19.545.899 1.171 1.455.805.713 1.483.936 1.694 1.042.21.106.332.087.453-.053.121-.14.517-.604.65-.812.133-.208.266-.173.446-.104.18.069 1.145.54 1.341.638.196.098.324.146.372.229.048.083.048.489-.198.814z"/>
</svg>